<?xml version="1.0" encoding="UTF-8" standalone="no"?>
<svg
   xmlns:dc="http://purl.org/dc/elements/1.1/"
   xmlns:cc="http://creativecommons.org/ns#"
   xmlns:rdf="http://www.w3.org/1999/02/22-rdf-syntax-ns#"
   xmlns:svg="http://www.w3.org/2000/svg"
   xmlns="http://www.w3.org/2000/svg"
   xml:space="preserve"
   enable-background="new 75 0 273.268 82.323"
   viewBox="75 0 273.268 82.323"
   height="82.323px"
   width="273.268px"
   y="0px"
   x="0px"
   class="nccoe-logo-svg"
   version="1.1">
<style type="text/css">
	.st0{fill:#4F8BBE;}
	.st1{fill:none;}
	.st2{fill:#818286;}
	.st3{fill:#D3AF73;}
	.st4{fill:#E89824;}
	.st5{fill:#10659C;}
	.st6{fill:none;stroke:#000000;stroke-width:1.0443;stroke-linecap:round;stroke-linejoin:round;stroke-miterlimit:10;}
</style>
<g>
	<g>
		<path d="M79.1,51.4h-3.4V38.1c0,0,0-2.5,2.5-3.3c2.3-0.7,3.8,0.7,3.8,0.7l11.3,12.3c0.6,0.4,0.8,0,0.8-0.4V34.8h3.5V48
			c0,1.1-0.9,2.5-2.3,3.1c-1.3,0.5-2.8,0.5-4.6-1L80.1,38.5c-0.3-0.3-1-0.3-1,0.3V51.4L79.1,51.4z"/>
		<path d="M99.8,34.8h3.5v11.9c0,1.3,1,1.3,2.1,1.3h15.4c0.6,0,1.4-0.8,1.4-1.5c0-0.8-0.7-1.6-1.4-1.6h-10c-1.7,0.1-5.3-1.5-5.3-4.9
			c0-4.1,3.4-5,4.9-5.2h28.4v3.5h-7.1v13.1h-3.4V38.3h-17.4c-1.7-0.1-2.8,2.7-0.1,3.1h10.7c1.6,0,4.3,1.4,4.3,4.8
			c0,3.5-2.1,5.2-4.3,5.2h-15.8c-2.6,0-3.5-0.6-4.5-1.5c-0.9-0.8-1-1.3-1.3-3.1V34.8L99.8,34.8z"/>
	</g>
</g>
<rect x="158.3" y="42.8" class="st0" width="4.1" height="1"/>
<rect x="174" y="43" class="st0" width="16.8" height="0.5"/>
<path class="st1" d="M172.6,34.4c-4.9,0-8.9,4-8.9,8.9c0,4.9,4,8.9,8.9,8.9c2.8,0,5.4-1.3,7-3.4l-4.5-5.1c-0.3,1-1.3,1.8-2.4,1.8
	c-1.4,0-2.5-1.1-2.5-2.5s1.1-2.5,2.5-2.5c1.1,0,2,0.7,2.4,1.7l4.3-4.6C177.6,35.6,175.2,34.4,172.6,34.4z"/>
<path class="st1" d="M172.6,29.5c-7.6,0-13.7,6.2-13.7,13.7S165,57,172.6,57c4.1,0,7.8-1.8,10.3-4.7l-1.7-1.9c-2.1,2.5-5.2,4-8.6,4
	c-6.2,0-11.3-5.1-11.3-11.3c0-6.2,5.1-11.3,11.3-11.3c3.3,0,6.3,1.4,8.4,3.7l1.6-1.7C180.1,31.2,176.5,29.5,172.6,29.5z"/>
<path class="st1" d="M172.1,25.1c-10,0-18.2,8.2-18.2,18.2c0,10,8.2,18.2,18.2,18.2c5.4,0,10.2-2.3,13.5-6l-2-2.2
	c-2.7,3-6.7,5-11.1,5c-8.3,0-15-6.7-15-15s6.7-15,15-15c4.3,0,8.1,1.8,10.8,4.7l2-2.1C182,27.3,177.3,25.1,172.1,25.1z"/>
<path class="st0" d="M172.6,52.1c-4.9,0-8.9-4-8.9-8.9c0-4.9,4-8.9,8.9-8.9c2.7,0,5,1.2,6.7,3l1.7-1.8c-2.1-2.3-5-3.7-8.4-3.7
	c-6.2,0-11.3,5.1-11.3,11.3c0,6.2,5.1,11.3,11.3,11.3c3.5,0,6.6-1.6,8.6-4l-1.7-1.9C177.9,50.8,175.4,52.1,172.6,52.1z"/>
<path class="st2" d="M172.6,57c-7.6,0-13.7-6.2-13.7-13.7s6.2-13.7,13.7-13.7c3.9,0,7.5,1.7,10,4.3l0.8-0.9
	c-2.7-2.9-6.6-4.7-10.8-4.7c-8.3,0-15,6.7-15,15s6.7,15,15,15c4.4,0,8.4-1.9,11.1-5l-0.8-0.9C180.4,55.2,176.7,57,172.6,57z"/>
<path class="st3" d="M172.1,61.4c-10,0-18.2-8.2-18.2-18.2c0-10,8.2-18.2,18.2-18.2c5.2,0,9.9,2.2,13.2,5.7l0.3-0.4
	c-3.4-3.6-8.2-5.8-13.5-5.8c-10.3,0-18.6,8.3-18.6,18.6c0,10.3,8.3,18.6,18.6,18.6c5.5,0,10.4-2.4,13.8-6.1l-0.3-0.4
	C182.3,59.1,177.5,61.4,172.1,61.4z"/>
<path class="st4" d="M175,42.4c-0.4-1-1.3-1.7-2.4-1.7c-1.4,0-2.5,1.1-2.5,2.5c0,1.4,1.1,2.5,2.5,2.5c1.1,0,2.1-0.8,2.4-1.8
	c0.1-0.2,0.1-0.5,0.1-0.8C175.2,42.9,175.1,42.6,175,42.4z"/>
<g>
	<path class="st5" d="M190.9,28.8l1.5,0L195,33c0.2,0.4,0.5,1,0.5,1l0,0c0,0,0-0.8,0-1.3l0-3.9l1.5,0l0,7.5l-1.5,0l-2.6-4.1
		c-0.2-0.4-0.5-1-0.5-1h0c0,0,0,0.8,0,1.3l0,3.9l-1.5,0L190.9,28.8z"/>
	<path class="st5" d="M200.2,28.8l1.6,0l2.7,7.5l-1.6,0l-0.5-1.6l-2.7,0l-0.5,1.6l-1.5,0L200.2,28.8z M200,33.5l2,0l-0.7-2.2
		c-0.1-0.4-0.3-1.2-0.3-1.2h0c0,0-0.2,0.8-0.3,1.2L200,33.5z"/>
	<path class="st5" d="M203.7,28.8l6,0l0,1.3l-2.3,0l0,6.2l-1.5,0l0-6.2l-2.3,0L203.7,28.8z"/>
	<path class="st5" d="M210.5,28.7l1.5,0l0,7.5l-1.5,0L210.5,28.7z"/>
	<path class="st5" d="M212.9,32.5c0-2.2,1.4-3.9,3.6-3.9c2.2,0,3.6,1.7,3.6,3.9s-1.4,3.9-3.6,3.9C214.4,36.4,212.9,34.7,212.9,32.5z
		 M218.6,32.5c0-1.5-0.7-2.7-2.1-2.7c-1.4,0-2.1,1.2-2.1,2.7c0,1.5,0.7,2.7,2.1,2.6C217.9,35.1,218.6,33.9,218.6,32.5z"/>
	<path class="st5" d="M221,28.7l1.5,0l2.5,4.2c0.2,0.4,0.5,1,0.5,1h0c0,0,0-0.8,0-1.3l0-3.9l1.5,0l0,7.5l-1.5,0L223,32
		c-0.2-0.4-0.5-1-0.5-1h0c0,0,0,0.8,0,1.3l0,3.9l-1.5,0L221,28.7z"/>
	<path class="st5" d="M230.2,28.6l1.6,0l2.7,7.5l-1.6,0l-0.5-1.6l-2.7,0l-0.5,1.6l-1.5,0L230.2,28.6z M230,33.4l2,0l-0.7-2.2
		c-0.1-0.4-0.3-1.2-0.3-1.2h0c0,0-0.2,0.8-0.3,1.2L230,33.4z"/>
	<path class="st5" d="M235.1,28.6l1.5,0l0,6.2l3.5,0l0,1.3l-5,0L235.1,28.6z"/>
	<path class="st5" d="M190.7,43.1c0-2.2,1.4-3.9,3.6-3.9c1.8,0,2.9,1.1,3.1,2.5l-1.5,0c-0.1-0.8-0.7-1.2-1.6-1.2c-1.4,0-2,1.2-2,2.7
		c0,1.5,0.8,2.6,2.1,2.6c0.9,0,1.5-0.5,1.6-1.3l1.5,0c0,0.7-0.3,1.3-0.8,1.8c-0.5,0.5-1.2,0.8-2.3,0.8
		C192.2,47,190.7,45.4,190.7,43.1z"/>
	<path class="st5" d="M199.7,43.9l-2.5-4.6l1.7,0l1.1,2.2c0.2,0.4,0.5,1.1,0.5,1.1h0c0,0,0.3-0.6,0.5-1.1l1.1-2.2l1.6,0l-2.5,4.6
		l0,2.9l-1.5,0L199.7,43.9z"/>
	<path class="st5" d="M204.4,39.3l3.4,0c0.8,0,1.4,0.2,1.8,0.5c0.4,0.4,0.6,0.8,0.6,1.4c0,0.8-0.5,1.3-1.2,1.5v0
		c0.8,0.2,1.4,0.9,1.4,1.9c0,0.7-0.2,1.2-0.7,1.6c-0.4,0.4-1.1,0.6-1.9,0.6l-3.4,0L204.4,39.3z M207.5,42.3c0.7,0,1.1-0.3,1.1-0.9
		c0-0.6-0.4-0.9-1.1-0.9l-1.7,0l0,1.8L207.5,42.3z M205.9,45.5l1.8,0c0.7,0,1.2-0.4,1.2-1c0-0.7-0.5-1.1-1.2-1.1l-1.7,0L205.9,45.5z
		"/>
	<path class="st5" d="M211.2,39.2l5.5,0l0,1.3l-4,0l0,1.7l3.5,0l0,1.2l-3.5,0l0,2l4,0l0,1.3l-5.6,0L211.2,39.2z"/>
	<path class="st5" d="M217.7,39.2l3.4,0c1.4,0,2.4,0.8,2.4,2.1c0,0.9-0.4,1.6-1.4,1.8l0,0c0.7,0.2,1.1,0.6,1.2,1.5
		c0.1,1.1,0.1,1.9,0.3,2v0.1l-1.5,0c-0.2-0.1-0.2-0.9-0.3-1.7c-0.1-0.8-0.5-1.3-1.5-1.3l-1.2,0l0,3l-1.5,0L217.7,39.2z M219.3,42.5
		l1.6,0c0.8,0,1.2-0.4,1.2-1c0-0.6-0.4-1.1-1.2-1.1l-1.7,0L219.3,42.5z"/>
	<path class="st5" d="M224.3,44.3l1.5,0c0.1,0.9,0.6,1.3,1.7,1.3c0.8,0,1.5-0.3,1.5-1c0-0.7-0.7-0.9-1.9-1.1
		c-1.3-0.3-2.6-0.6-2.6-2.2c0-1.5,1.2-2.3,2.9-2.3c1.7,0,2.8,0.8,2.9,2.3l-1.5,0c-0.1-0.8-0.7-1.1-1.5-1.1c-0.8,0-1.4,0.4-1.4,0.9
		c0,0.6,0.5,0.8,1.6,1c1.5,0.3,2.8,0.7,2.8,2.3c0,1.5-1.2,2.4-2.9,2.4C225.5,46.8,224.3,45.9,224.3,44.3z"/>
	<path class="st5" d="M231.3,39.1l5.5,0l0,1.3l-4,0l0,1.7l3.5,0l0,1.2l-3.5,0l0,2l4,0l0,1.3l-5.6,0L231.3,39.1z"/>
	<path class="st5" d="M237.4,42.9c0-2.2,1.4-3.9,3.6-3.9c1.8,0,2.9,1.1,3.1,2.5l-1.5,0c-0.1-0.8-0.7-1.2-1.6-1.2c-1.4,0-2,1.2-2,2.7
		c0,1.5,0.8,2.6,2.1,2.6c0.9,0,1.5-0.5,1.6-1.3l1.5,0c0,0.7-0.3,1.3-0.8,1.8c-0.5,0.5-1.2,0.8-2.3,0.8
		C238.9,46.8,237.4,45.1,237.4,42.9z"/>
	<path class="st5" d="M244.8,44.2l0-5.1l1.5,0l0,5.1c0,0.8,0.4,1.3,1.4,1.3c1,0,1.4-0.6,1.4-1.3l0-5.1l1.5,0l0,5.1
		c0,1.6-1,2.5-2.9,2.6C245.8,46.7,244.8,45.8,244.8,44.2z"/>
	<path class="st5" d="M251.7,39l3.4,0c1.4,0,2.4,0.8,2.4,2.1c0,0.9-0.4,1.6-1.4,1.8l0,0c0.7,0.2,1.1,0.6,1.2,1.5
		c0.1,1.1,0.1,1.9,0.3,2v0.1l-1.5,0c-0.2-0.1-0.2-0.9-0.3-1.7c-0.1-0.8-0.5-1.3-1.5-1.3l-1.2,0l0,3l-1.5,0L251.7,39z M253.3,42.3
		l1.6,0c0.8,0,1.2-0.4,1.2-1c0-0.6-0.4-1.1-1.2-1.1l-1.7,0L253.3,42.3z"/>
	<path class="st5" d="M258.6,39l1.5,0l0,7.5l-1.5,0L258.6,39z"/>
	<path class="st5" d="M260.9,39l6,0l0,1.3l-2.3,0l0,6.2l-1.5,0l0-6.2l-2.3,0L260.9,39z"/>
	<path class="st5" d="M269.8,43.6l-2.5-4.6l1.7,0l1.1,2.2c0.2,0.5,0.5,1.1,0.5,1.1l0,0c0,0,0.3-0.6,0.5-1.1l1.1-2.2l1.6,0l-2.5,4.6
		l0,2.9l-1.5,0L269.8,43.6z"/>
	<path class="st5" d="M190.9,53.6c0-2.2,1.3-3.9,3.5-3.9c1.8,0,2.8,1,3,2.4l-0.9,0c-0.2-0.9-0.9-1.6-2.1-1.6c-1.6,0-2.6,1.3-2.6,3.1
		c0,1.8,1,3.1,2.6,3.1c1.4,0,2.1-1,2.2-2.1l0.9,0c0,0.7-0.4,1.6-0.9,2.1c-0.5,0.5-1.3,0.8-2.2,0.8C192.3,57.5,190.9,55.8,190.9,53.6
		z"/>
	<path class="st5" d="M198.6,49.8l5.3,0l0,0.8l-4.4,0l0,2.4l4,0l0,0.8l-4,0l0,2.6l4.5,0l0,0.9l-5.4,0L198.6,49.8z"/>
	<path class="st5" d="M205.1,49.8l1,0l3.4,5.2c0.3,0.4,0.6,1,0.6,1h0l0-6.2l0.9,0l0,7.5l-1,0l-3.5-5.2c-0.2-0.4-0.6-0.9-0.6-0.9h0
		l0,6.2l-0.9,0L205.1,49.8z"/>
	<path class="st5" d="M211.9,49.7l5.9,0l0,0.8l-2.5,0l0,6.7l-0.9,0l0-6.7l-2.5,0L211.9,49.7z"/>
	<path class="st5" d="M218.8,49.7l5.3,0l0,0.8l-4.4,0l0,2.4l4,0l0,0.8l-4,0l0,2.6l4.5,0l0,0.9l-5.4,0L218.8,49.7z"/>
	<path class="st5" d="M225.4,49.7l3.5,0c1.3,0,2.2,0.8,2.2,2c0,0.9-0.4,1.6-1.3,1.9v0c0.8,0.3,1,0.8,1.1,1.9
		c0.1,1.2,0.2,1.5,0.4,1.6l0,0l-1,0c-0.2-0.1-0.2-0.4-0.3-1.7c-0.1-1.1-0.5-1.5-1.5-1.5l-2.1,0l0,3.2l-0.9,0L225.4,49.7z
		 M226.3,53.2l2.2,0c1,0,1.6-0.5,1.6-1.4c0-0.9-0.4-1.4-1.5-1.4l-2.3,0L226.3,53.2z"/>
	<path class="st5" d="M233.6,53.4c0-2.2,1.4-3.9,3.7-3.9s3.7,1.7,3.7,3.9c0,2.2-1.4,3.9-3.7,3.9S233.6,55.6,233.6,53.4z M240,53.3
		c0-1.8-1-3.1-2.7-3.1s-2.7,1.3-2.7,3.1s1,3.1,2.7,3.1S240,55.1,240,53.3z"/>
	<path class="st5" d="M242.1,49.6l5.1,0l0,0.8l-4.1,0l0,2.3l3.5,0l0,0.8l-3.5,0l0,3.5l-0.9,0L242.1,49.6z"/>
	<path class="st5" d="M249.8,49.5l5.3,0l0,0.8l-4.4,0l0,2.4l4,0l0,0.8l-4,0l0,2.6l4.5,0l0,0.9l-5.4,0L249.8,49.5z"/>
	<path class="st5" d="M258.4,53.2l-2.4-3.7l1.1,0l1.9,3h0l1.9-3l1,0l-2.4,3.7L262,57l-1.1,0l-1.9-3.2h0l-2,3.2l-1.1,0L258.4,53.2z"
		/>
	<path class="st5" d="M261.9,53.2c0-2.2,1.3-3.9,3.5-3.9c1.8,0,2.8,1,3,2.4l-0.9,0c-0.2-0.9-0.9-1.6-2.1-1.6c-1.6,0-2.6,1.3-2.6,3.1
		c0,1.8,1,3.1,2.6,3.1c1.4,0,2.1-1,2.2-2.1l0.9,0c0,0.7-0.4,1.6-0.9,2.1c-0.5,0.5-1.3,0.8-2.2,0.8C263.3,57.1,261.9,55.5,261.9,53.2
		z"/>
	<path class="st5" d="M269.6,49.5l5.3,0l0,0.8l-4.4,0l0,2.4l4,0l0,0.8l-4,0l0,2.6l4.5,0l0,0.9l-5.4,0L269.6,49.5z"/>
	<path class="st5" d="M276.2,49.4l0.9,0l0,6.6l3.9,0l0,0.9l-4.9,0L276.2,49.4z"/>
	<path class="st5" d="M282,49.4l0.9,0l0,6.6l3.9,0l0,0.9l-4.9,0L282,49.4z"/>
	<path class="st5" d="M287.8,49.4l5.3,0l0,0.8l-4.4,0l0,2.4l4,0l0,0.8l-4,0l0,2.6l4.5,0l0,0.9l-5.4,0L287.8,49.4z"/>
	<path class="st5" d="M294.3,49.3l1,0l3.4,5.2c0.3,0.4,0.6,1,0.6,1h0l0-6.2l0.9,0l0,7.5l-1,0l-3.5-5.2c-0.2-0.4-0.6-0.9-0.6-0.9h0
		l0,6.2l-0.9,0L294.3,49.3z"/>
	<path class="st5" d="M301.3,53.1c0-2.2,1.3-3.9,3.5-3.9c1.8,0,2.8,1,3,2.4l-0.9,0c-0.2-0.9-0.9-1.6-2.1-1.6c-1.6,0-2.6,1.3-2.6,3.1
		c0,1.8,1,3.1,2.6,3.1c1.4,0,2.1-1,2.2-2.1l0.9,0c0,0.7-0.4,1.6-0.9,2.1c-0.5,0.5-1.3,0.8-2.2,0.8C302.7,57,301.3,55.3,301.3,53.1z"
		/>
	<path class="st5" d="M309,49.3l5.3,0l0,0.8l-4.4,0l0,2.4l4,0l0,0.8l-4,0l0,2.6l4.5,0l0,0.9l-5.4,0L309,49.3z"/>
</g>
<polyline class="st6" points="143.9,24.8 143.9,40 148.6,42.7 143.9,45.5 143.9,61.2 "/>

  </svg>
